# xmcd
#
# Track frame offsets: 
#        150
#        10920
#        22247
#        34420
#        45605
#        56725
#        67847
#        79940
#        90200
#        106632
#        116557
#        129342
#        139767
#        176735
#        184845
#        194800
#        205100
#        214960
#        227665
#        238675
#        251367
#
# Disc length: 3498 seconds
#
# Revision: 1
# Processed by: cddbd v1.5.2PL0 Copyright (c) Steve Scherf et al.
# Submitted via: ExactAudioCopy v1.0b3
#
DISCID=260da815
DTITLE=Bob Wills and His Texas Playboys - Faded Love CD-08
DYEAR=2005
DGENRE=Western Swing
TTITLE0=Maiden's Prayer (1963)
TTITLE1=Boot Heel Drag (1963)
TTITLE2=Don't Let The Deal Go Down (1963)
TTITLE3=Blues In 'A' (1963)
TTITLE4=Big Beaver (2005)
TTITLE5=Yearning (Just For You) (1963)
TTITLE6=My Mary (1963)
TTITLE7=Rosetta (1963)
TTITLE8=Sittin' On Top Of The World (1963)
TTITLE9=My Confession (1963)
TTITLE10=Snap Your Fingers (1963)
TTITLE11=Will You Miss Me When I'm Gone (1963)
TTITLE12=St. Louis Blues (2005)
TTITLE13=South (1963)
TTITLE14=Heart Strings (2005)
TTITLE15=Sooner Or Later (You'll Fall) (1965)
TTITLE16=Buffalo Twist (1965)
TTITLE17=All Night Long (1965)
TTITLE18=You Can't Break A Heart (1965)
TTITLE19=If He's Movin' In (1965)
TTITLE20=Let's Get It Over And Done With (1965)
EXTD=
EXTT0=
EXTT1=
EXTT2=
EXTT3=
EXTT4=
EXTT5=
EXTT6=
EXTT7=
EXTT8=
EXTT9=
EXTT10=
EXTT11=
EXTT12=
EXTT13=
EXTT14=
EXTT15=
EXTT16=
EXTT17=
EXTT18=
EXTT19=
EXTT20=
PLAYORDER=
